<mxfile host="app.diagrams.net" modified="2022-05-11T16:21:12.745Z" agent="5.0 (Windows NT 10.0; Win64; x64) AppleWebKit/537.36 (KHTML, like Gecko) Chrome/101.0.4951.54 Safari/537.36 Edg/101.0.1210.39" etag="C9JipP1gWfDYOfV9lwd5" version="18.0.1" type="github">
  <diagram id="I3ww5SjWaeeA8FYdb1Cg" name="第 1 页">
    <mxGraphModel dx="1830" dy="586" grid="1" gridSize="10" guides="1" tooltips="1" connect="1" arrows="1" fold="1" page="1" pageScale="1" pageWidth="827" pageHeight="1169" math="0" shadow="0">
      <root>
        <mxCell id="0" />
        <mxCell id="1" parent="0" />
        <mxCell id="FJBJN5pR6QjKi9RD2nhv-38" value="" style="edgeStyle=orthogonalEdgeStyle;rounded=0;orthogonalLoop=1;jettySize=auto;html=1;fontSize=13;fontColor=#FF66B3;" edge="1" parent="1" source="FJBJN5pR6QjKi9RD2nhv-1" target="FJBJN5pR6QjKi9RD2nhv-7">
          <mxGeometry relative="1" as="geometry" />
        </mxCell>
        <mxCell id="FJBJN5pR6QjKi9RD2nhv-1" value="&lt;b&gt;&lt;font style=&quot;font-size: 13px;&quot;&gt;复制cloud头部信息给inliers和&lt;/font&gt;&lt;/b&gt;&lt;span style=&quot;background-color: rgb(255, 255, 255); font-family: Consolas, &amp;quot;Courier New&amp;quot;, monospace; font-size: 14px;&quot;&gt;&lt;b&gt;model_coeff&lt;/b&gt;&lt;/span&gt;" style="rounded=0;whiteSpace=wrap;html=1;" vertex="1" parent="1">
          <mxGeometry x="500.5" y="180" width="120" height="60" as="geometry" />
        </mxCell>
        <mxCell id="FJBJN5pR6QjKi9RD2nhv-12" value="" style="edgeStyle=orthogonalEdgeStyle;rounded=0;orthogonalLoop=1;jettySize=auto;html=1;fontSize=13;fontColor=#000000;" edge="1" parent="1" source="FJBJN5pR6QjKi9RD2nhv-7" target="FJBJN5pR6QjKi9RD2nhv-9">
          <mxGeometry relative="1" as="geometry" />
        </mxCell>
        <mxCell id="FJBJN5pR6QjKi9RD2nhv-7" value="&lt;b&gt;&lt;span style=&quot;font-family: Consolas, &amp;quot;Courier New&amp;quot;, monospace; font-size: 14px; color: rgb(121, 94, 38);&quot;&gt;initCompute&lt;/span&gt;&lt;span style=&quot;background-color: rgb(255, 255, 255); font-family: Consolas, &amp;quot;Courier New&amp;quot;, monospace; font-size: 14px;&quot;&gt; ()：获取Indices&lt;/span&gt;&lt;/b&gt;" style="rounded=0;whiteSpace=wrap;html=1;fontSize=13;fontColor=#000000;" vertex="1" parent="1">
          <mxGeometry x="495" y="380" width="131" height="60" as="geometry" />
        </mxCell>
        <mxCell id="FJBJN5pR6QjKi9RD2nhv-14" value="" style="edgeStyle=orthogonalEdgeStyle;rounded=0;orthogonalLoop=1;jettySize=auto;html=1;fontSize=13;fontColor=#000000;" edge="1" parent="1" source="FJBJN5pR6QjKi9RD2nhv-9" target="FJBJN5pR6QjKi9RD2nhv-13">
          <mxGeometry relative="1" as="geometry" />
        </mxCell>
        <mxCell id="FJBJN5pR6QjKi9RD2nhv-9" value="&lt;div style=&quot;background-color: rgb(255, 255, 255); font-family: Consolas, &amp;quot;Courier New&amp;quot;, monospace; font-size: 14px; line-height: 19px;&quot;&gt;&lt;b&gt;&lt;span style=&quot;color: #795e26;&quot;&gt;initSACModel&lt;/span&gt; (&lt;span style=&quot;color: #001080;&quot;&gt;model_type_&lt;/span&gt;):选择模型类型（平面）和参数&lt;/b&gt;&lt;/div&gt;" style="rounded=0;whiteSpace=wrap;html=1;fontSize=13;fontColor=#000000;" vertex="1" parent="1">
          <mxGeometry x="451" y="594.5" width="219" height="80" as="geometry" />
        </mxCell>
        <mxCell id="FJBJN5pR6QjKi9RD2nhv-20" value="" style="edgeStyle=orthogonalEdgeStyle;rounded=0;orthogonalLoop=1;jettySize=auto;html=1;fontSize=13;fontColor=#000000;" edge="1" parent="1" source="FJBJN5pR6QjKi9RD2nhv-13" target="FJBJN5pR6QjKi9RD2nhv-19">
          <mxGeometry relative="1" as="geometry" />
        </mxCell>
        <mxCell id="FJBJN5pR6QjKi9RD2nhv-13" value="&lt;div style=&quot;background-color: rgb(255, 255, 255); font-family: Consolas, &amp;quot;Courier New&amp;quot;, monospace; font-size: 14px; line-height: 19px;&quot;&gt;&lt;b&gt;&lt;span style=&quot;color: #795e26;&quot;&gt;initSAC&lt;/span&gt; (&lt;span style=&quot;color: #001080;&quot;&gt;method_type_&lt;/span&gt;)：初始化随机采样方法（RANSAC）和参数&lt;/b&gt;&lt;/div&gt;" style="rounded=0;whiteSpace=wrap;html=1;fontSize=13;fontColor=#000000;" vertex="1" parent="1">
          <mxGeometry x="460" y="790" width="201" height="100" as="geometry" />
        </mxCell>
        <mxCell id="FJBJN5pR6QjKi9RD2nhv-25" value="" style="edgeStyle=orthogonalEdgeStyle;rounded=0;orthogonalLoop=1;jettySize=auto;html=1;fontSize=13;fontColor=#000000;" edge="1" parent="1" source="FJBJN5pR6QjKi9RD2nhv-18" target="FJBJN5pR6QjKi9RD2nhv-23">
          <mxGeometry relative="1" as="geometry" />
        </mxCell>
        <mxCell id="FJBJN5pR6QjKi9RD2nhv-18" value="&lt;b style=&quot;font-family: Consolas, &amp;quot;Courier New&amp;quot;, monospace; font-size: 14px;&quot;&gt;&lt;span style=&quot;color: rgb(0, 16, 128);&quot;&gt;sac_&lt;/span&gt;-&amp;gt;&lt;span style=&quot;color: rgb(121, 94, 38);&quot;&gt;getInliers&lt;/span&gt;&amp;nbsp;(&lt;span style=&quot;color: rgb(0, 16, 128);&quot;&gt;inliers&lt;/span&gt;.&lt;span style=&quot;color: rgb(0, 16, 128);&quot;&gt;indices&lt;/span&gt;):获得inliers序列&lt;/b&gt;" style="rounded=0;whiteSpace=wrap;html=1;fontSize=13;fontColor=#000000;" vertex="1" parent="1">
          <mxGeometry x="424.75" y="1240" width="271.5" height="60" as="geometry" />
        </mxCell>
        <mxCell id="FJBJN5pR6QjKi9RD2nhv-21" value="" style="edgeStyle=orthogonalEdgeStyle;rounded=0;orthogonalLoop=1;jettySize=auto;html=1;fontSize=13;fontColor=#000000;" edge="1" parent="1" source="FJBJN5pR6QjKi9RD2nhv-19" target="FJBJN5pR6QjKi9RD2nhv-18">
          <mxGeometry relative="1" as="geometry" />
        </mxCell>
        <mxCell id="FJBJN5pR6QjKi9RD2nhv-19" value="&lt;b style=&quot;font-family: Consolas, &amp;quot;Courier New&amp;quot;, monospace; font-size: 14px;&quot;&gt;&lt;span style=&quot;color: rgb(0, 16, 128);&quot;&gt;sac_&lt;/span&gt;-&amp;gt;&lt;span style=&quot;color: rgb(121, 94, 38);&quot;&gt;computeModel：&lt;/span&gt;核心计算，获得inliers和model_coeff&lt;/b&gt;" style="rounded=0;whiteSpace=wrap;html=1;fontSize=13;fontColor=#000000;" vertex="1" parent="1">
          <mxGeometry x="475.5" y="990" width="170" height="60" as="geometry" />
        </mxCell>
        <mxCell id="FJBJN5pR6QjKi9RD2nhv-27" value="" style="edgeStyle=orthogonalEdgeStyle;rounded=0;orthogonalLoop=1;jettySize=auto;html=1;fontSize=13;fontColor=#000000;" edge="1" parent="1" source="FJBJN5pR6QjKi9RD2nhv-23" target="FJBJN5pR6QjKi9RD2nhv-26">
          <mxGeometry relative="1" as="geometry" />
        </mxCell>
        <mxCell id="FJBJN5pR6QjKi9RD2nhv-23" value="&lt;div style=&quot;background-color: rgb(255, 255, 255); font-family: Consolas, &amp;quot;Courier New&amp;quot;, monospace; font-size: 14px; line-height: 19px;&quot;&gt;&lt;b&gt;&lt;span style=&quot;color: #001080;&quot;&gt;sac_&lt;/span&gt;-&amp;gt;&lt;span style=&quot;color: #795e26;&quot;&gt;getModelCoefficients&lt;/span&gt; (&lt;span style=&quot;color: #001080;&quot;&gt;coeff&lt;/span&gt;)：获得model_coeff的值&lt;/b&gt;&lt;/div&gt;" style="rounded=0;whiteSpace=wrap;html=1;fontSize=13;fontColor=#000000;" vertex="1" parent="1">
          <mxGeometry x="420" y="1345" width="280" height="60" as="geometry" />
        </mxCell>
        <mxCell id="FJBJN5pR6QjKi9RD2nhv-26" value="&lt;div style=&quot;background-color: rgb(255, 255, 255); font-family: Consolas, &amp;quot;Courier New&amp;quot;, monospace; font-size: 14px; line-height: 19px;&quot;&gt;&lt;b style=&quot;&quot;&gt;&lt;font color=&quot;#795e26&quot;&gt;optimize_coefficients_&lt;/font&gt;&lt;font color=&quot;#001080&quot;&gt;：&lt;/font&gt;&lt;/b&gt;&lt;/div&gt;&lt;div style=&quot;background-color: rgb(255, 255, 255); font-family: Consolas, &amp;quot;Courier New&amp;quot;, monospace; font-size: 14px; line-height: 19px;&quot;&gt;&lt;b style=&quot;&quot;&gt;进一步优化&lt;/b&gt;&lt;/div&gt;" style="rounded=0;whiteSpace=wrap;html=1;fontSize=13;fontColor=#000000;" vertex="1" parent="1">
          <mxGeometry x="464.5" y="1505" width="190" height="60" as="geometry" />
        </mxCell>
        <mxCell id="FJBJN5pR6QjKi9RD2nhv-36" value="" style="edgeStyle=orthogonalEdgeStyle;rounded=0;orthogonalLoop=1;jettySize=auto;html=1;fontSize=13;fontColor=#FF66B3;" edge="1" parent="1" target="FJBJN5pR6QjKi9RD2nhv-1">
          <mxGeometry relative="1" as="geometry">
            <mxPoint x="560.5" y="120" as="sourcePoint" />
          </mxGeometry>
        </mxCell>
        <mxCell id="FJBJN5pR6QjKi9RD2nhv-37" value="&lt;b style=&quot;&quot;&gt;inliers，model_coeff&lt;/b&gt;" style="text;html=1;align=center;verticalAlign=middle;resizable=0;points=[];autosize=1;strokeColor=none;fillColor=none;fontSize=13;fontColor=#FF66B3;" vertex="1" parent="1">
          <mxGeometry x="505.5" y="250" width="140" height="20" as="geometry" />
        </mxCell>
        <mxCell id="FJBJN5pR6QjKi9RD2nhv-41" value="&lt;div style=&quot;background-color: rgb(255, 255, 255); font-family: Consolas, &amp;quot;Courier New&amp;quot;, monospace; font-size: 14px; line-height: 19px;&quot;&gt;&lt;div style=&quot;&quot;&gt;&lt;b&gt;sample_size_ = 3;&lt;/b&gt;&lt;/div&gt;&lt;div style=&quot;&quot;&gt;&lt;b&gt;model_size_ = 4&lt;/b&gt;&lt;/div&gt;&lt;/div&gt;" style="text;whiteSpace=wrap;html=1;fontSize=13;fontColor=#FF66B3;" vertex="1" parent="1">
          <mxGeometry x="490.5" y="680" width="170" height="40" as="geometry" />
        </mxCell>
        <mxCell id="FJBJN5pR6QjKi9RD2nhv-42" value="&lt;b&gt;输入inliers，model_coeff，cloud&lt;/b&gt;" style="text;whiteSpace=wrap;html=1;fontSize=13;fontColor=#FF66B3;" vertex="1" parent="1">
          <mxGeometry x="455.5" y="90" width="210" height="30" as="geometry" />
        </mxCell>
        <mxCell id="FJBJN5pR6QjKi9RD2nhv-44" value="&lt;b&gt;input_=cloud&lt;/b&gt;" style="text;html=1;align=center;verticalAlign=middle;resizable=0;points=[];autosize=1;strokeColor=none;fillColor=none;fontSize=13;fontColor=#FF66B3;" vertex="1" parent="1">
          <mxGeometry x="509.5" y="350" width="100" height="20" as="geometry" />
        </mxCell>
        <mxCell id="FJBJN5pR6QjKi9RD2nhv-64" value="" style="edgeStyle=orthogonalEdgeStyle;rounded=0;orthogonalLoop=1;jettySize=auto;html=1;fontSize=13;fontColor=#008000;" edge="1" parent="1" source="FJBJN5pR6QjKi9RD2nhv-46" target="FJBJN5pR6QjKi9RD2nhv-7">
          <mxGeometry relative="1" as="geometry" />
        </mxCell>
        <mxCell id="FJBJN5pR6QjKi9RD2nhv-46" value="&lt;font color=&quot;#008000&quot;&gt;获取序列indices，&lt;/font&gt;&lt;span style=&quot;color: rgb(0, 128, 0); background-color: rgb(255, 255, 255); font-family: Consolas, &amp;quot;Courier New&amp;quot;, monospace; font-size: 14px;&quot;&gt;如果没有给出点序列，则为整个输入点云构建一组序列，&lt;/span&gt;&lt;span style=&quot;background-color: rgb(255, 255, 255); color: rgb(0, 128, 0); font-family: Consolas, &amp;quot;Courier New&amp;quot;, monospace; font-size: 14px;&quot;&gt;如果&lt;/span&gt;&lt;span style=&quot;background-color: rgb(255, 255, 255); font-family: Consolas, &amp;quot;Courier New&amp;quot;, monospace; font-size: 14px;&quot;&gt;&lt;font color=&quot;#008000&quot;&gt;已经出在一组索引，但它们与云中的点数不匹配，则更新它们&lt;/font&gt;&lt;/span&gt;" style="whiteSpace=wrap;html=1;aspect=fixed;fontSize=13;fontColor=#FF66B3;" vertex="1" parent="1">
          <mxGeometry x="670" y="330" width="160" height="160" as="geometry" />
        </mxCell>
        <mxCell id="FJBJN5pR6QjKi9RD2nhv-47" value="" style="shape=flexArrow;endArrow=classic;html=1;rounded=0;fontSize=13;fontColor=#008000;" edge="1" parent="1">
          <mxGeometry width="50" height="50" relative="1" as="geometry">
            <mxPoint x="490.5" y="409.5" as="sourcePoint" />
            <mxPoint x="390" y="410" as="targetPoint" />
            <Array as="points">
              <mxPoint x="490.5" y="409.5" />
            </Array>
          </mxGeometry>
        </mxCell>
        <mxCell id="FJBJN5pR6QjKi9RD2nhv-51" value="" style="swimlane;startSize=0;fontSize=13;fontColor=#008000;" vertex="1" parent="1">
          <mxGeometry x="-90" y="210" width="470" height="345" as="geometry" />
        </mxCell>
        <mxCell id="FJBJN5pR6QjKi9RD2nhv-55" value="&lt;div style=&quot;color: rgb(0, 0, 0); background-color: rgb(255, 255, 255); font-family: Consolas, &amp;quot;Courier New&amp;quot;, monospace; font-size: 14px; line-height: 19px;&quot;&gt;&lt;span style=&quot;color: #af00db;&quot;&gt;for&lt;/span&gt; (&lt;span style=&quot;color: #267f99;&quot;&gt;size_t&lt;/span&gt; &lt;span style=&quot;color: #001080;&quot;&gt;i&lt;/span&gt; = &lt;span style=&quot;color: #098658;&quot;&gt;0&lt;/span&gt;; &lt;span style=&quot;color: #001080;&quot;&gt;i&lt;/span&gt; &amp;lt; &lt;span style=&quot;color: #001080;&quot;&gt;indices_&lt;/span&gt;&lt;span style=&quot;color: #795e26;&quot;&gt;-&amp;gt;&lt;/span&gt;&lt;span style=&quot;color: #795e26;&quot;&gt;size&lt;/span&gt; (); ++&lt;span style=&quot;color: #001080;&quot;&gt;i&lt;/span&gt;)&lt;/div&gt;&lt;div style=&quot;color: rgb(0, 0, 0); background-color: rgb(255, 255, 255); font-family: Consolas, &amp;quot;Courier New&amp;quot;, monospace; font-size: 14px; line-height: 19px;&quot;&gt;{&lt;/div&gt;&lt;div style=&quot;color: rgb(0, 0, 0); background-color: rgb(255, 255, 255); font-family: Consolas, &amp;quot;Courier New&amp;quot;, monospace; font-size: 14px; line-height: 19px;&quot;&gt;&amp;nbsp; &amp;nbsp; (&lt;span style=&quot;color: rgb(121, 94, 38);&quot;&gt;*&lt;/span&gt;&lt;span style=&quot;color: rgb(0, 16, 128);&quot;&gt;indices_&lt;/span&gt;)&lt;span style=&quot;color: rgb(121, 94, 38);&quot;&gt;[&lt;/span&gt;&lt;span style=&quot;color: rgb(0, 16, 128);&quot;&gt;i&lt;/span&gt;&lt;span style=&quot;color: rgb(121, 94, 38);&quot;&gt;]&lt;/span&gt; = &lt;span style=&quot;color: rgb(0, 0, 255);&quot;&gt;static_cast&lt;/span&gt;&amp;lt;&lt;span style=&quot;color: rgb(0, 0, 255);&quot;&gt;int&lt;/span&gt;&amp;gt;(&lt;span style=&quot;color: rgb(0, 16, 128);&quot;&gt;i&lt;/span&gt;);&amp;nbsp;&lt;/div&gt;&lt;div style=&quot;color: rgb(0, 0, 0); background-color: rgb(255, 255, 255); font-family: Consolas, &amp;quot;Courier New&amp;quot;, monospace; font-size: 14px; line-height: 19px;&quot;&gt;}&lt;/div&gt;" style="whiteSpace=wrap;html=1;fontSize=13;fontColor=#008000;align=left;" vertex="1" parent="FJBJN5pR6QjKi9RD2nhv-51">
          <mxGeometry x="10" y="30" width="450" height="115" as="geometry" />
        </mxCell>
        <mxCell id="FJBJN5pR6QjKi9RD2nhv-57" value="&lt;div style=&quot;color: rgb(0, 0, 0); background-color: rgb(255, 255, 255); font-family: Consolas, &amp;quot;Courier New&amp;quot;, monospace; font-size: 14px; line-height: 19px;&quot;&gt;&lt;span style=&quot;color: #af00db;&quot;&gt;for&lt;/span&gt; (&lt;span style=&quot;color: #267f99;&quot;&gt;size_t&lt;/span&gt; &lt;span style=&quot;color: #001080;&quot;&gt;i&lt;/span&gt; = &lt;span style=&quot;color: #001080;&quot;&gt;indices_size&lt;/span&gt;; &lt;span style=&quot;color: #001080;&quot;&gt;i&lt;/span&gt; &amp;lt; &lt;span style=&quot;color: #001080;&quot;&gt;indices_&lt;/span&gt;&lt;span style=&quot;color: #795e26;&quot;&gt;-&amp;gt;&lt;/span&gt;&lt;span style=&quot;color: #795e26;&quot;&gt;size&lt;/span&gt; (); ++&lt;span style=&quot;color: #001080;&quot;&gt;i&lt;/span&gt;) {&amp;nbsp;&lt;/div&gt;&lt;div style=&quot;color: rgb(0, 0, 0); background-color: rgb(255, 255, 255); font-family: Consolas, &amp;quot;Courier New&amp;quot;, monospace; font-size: 14px; line-height: 19px;&quot;&gt;&amp;nbsp; &amp;nbsp; (&lt;span style=&quot;color: #795e26;&quot;&gt;*&lt;/span&gt;&lt;span style=&quot;color: #001080;&quot;&gt;indices_&lt;/span&gt;)&lt;span style=&quot;color: #795e26;&quot;&gt;[&lt;/span&gt;&lt;span style=&quot;color: #001080;&quot;&gt;i&lt;/span&gt;&lt;span style=&quot;color: #795e26;&quot;&gt;]&lt;/span&gt; = &lt;span style=&quot;color: #0000ff;&quot;&gt;static_cast&lt;/span&gt;&amp;lt;&lt;span style=&quot;color: #0000ff;&quot;&gt;int&lt;/span&gt;&amp;gt;(&lt;span style=&quot;color: #001080;&quot;&gt;i&lt;/span&gt;);&lt;/div&gt;&lt;div style=&quot;color: rgb(0, 0, 0); background-color: rgb(255, 255, 255); font-family: Consolas, &amp;quot;Courier New&amp;quot;, monospace; font-size: 14px; line-height: 19px;&quot;&gt;&amp;nbsp;}&lt;/div&gt;" style="whiteSpace=wrap;html=1;fontSize=13;fontColor=#008000;align=left;" vertex="1" parent="FJBJN5pR6QjKi9RD2nhv-51">
          <mxGeometry x="10" y="160" width="450" height="150" as="geometry" />
        </mxCell>
        <mxCell id="FJBJN5pR6QjKi9RD2nhv-60" value="" style="swimlane;startSize=0;fontSize=13;fontColor=#008000;" vertex="1" parent="1">
          <mxGeometry x="-130" y="780" width="460" height="420" as="geometry" />
        </mxCell>
        <mxCell id="FJBJN5pR6QjKi9RD2nhv-62" value="第一个for循环：获取初始内点样本，不断优化初始样本初始迭代次数为1000&lt;br&gt;&lt;span style=&quot;font-family: Consolas, &amp;quot;Courier New&amp;quot;, monospace; font-size: 14px; color: rgb(121, 94, 38);&quot;&gt;getSamples&lt;/span&gt;&lt;span style=&quot;background-color: rgb(255, 255, 255); color: rgb(0, 0, 0); font-family: Consolas, &amp;quot;Courier New&amp;quot;, monospace; font-size: 14px;&quot;&gt; (&lt;/span&gt;&lt;span style=&quot;font-family: Consolas, &amp;quot;Courier New&amp;quot;, monospace; font-size: 14px; color: rgb(0, 0, 255);&quot;&gt;int&lt;/span&gt;&lt;span style=&quot;background-color: rgb(255, 255, 255); color: rgb(0, 0, 0); font-family: Consolas, &amp;quot;Courier New&amp;quot;, monospace; font-size: 14px;&quot;&gt; &amp;amp;&lt;/span&gt;&lt;span style=&quot;font-family: Consolas, &amp;quot;Courier New&amp;quot;, monospace; font-size: 14px; color: rgb(0, 16, 128);&quot;&gt;iterations&lt;/span&gt;&lt;span style=&quot;background-color: rgb(255, 255, 255); color: rgb(0, 0, 0); font-family: Consolas, &amp;quot;Courier New&amp;quot;, monospace; font-size: 14px;&quot;&gt;, &lt;/span&gt;&lt;span style=&quot;font-family: Consolas, &amp;quot;Courier New&amp;quot;, monospace; font-size: 14px; color: rgb(38, 127, 153);&quot;&gt;std&lt;/span&gt;&lt;span style=&quot;background-color: rgb(255, 255, 255); color: rgb(0, 0, 0); font-family: Consolas, &amp;quot;Courier New&amp;quot;, monospace; font-size: 14px;&quot;&gt;::&lt;/span&gt;&lt;span style=&quot;font-family: Consolas, &amp;quot;Courier New&amp;quot;, monospace; font-size: 14px; color: rgb(38, 127, 153);&quot;&gt;vector&lt;/span&gt;&lt;span style=&quot;background-color: rgb(255, 255, 255); color: rgb(0, 0, 0); font-family: Consolas, &amp;quot;Courier New&amp;quot;, monospace; font-size: 14px;&quot;&gt;&amp;lt;&lt;/span&gt;&lt;span style=&quot;font-family: Consolas, &amp;quot;Courier New&amp;quot;, monospace; font-size: 14px; color: rgb(0, 0, 255);&quot;&gt;int&lt;/span&gt;&lt;span style=&quot;background-color: rgb(255, 255, 255); color: rgb(0, 0, 0); font-family: Consolas, &amp;quot;Courier New&amp;quot;, monospace; font-size: 14px;&quot;&gt;&amp;gt; &amp;amp;&lt;/span&gt;&lt;span style=&quot;font-family: Consolas, &amp;quot;Courier New&amp;quot;, monospace; font-size: 14px; color: rgb(0, 16, 128);&quot;&gt;samples&lt;/span&gt;&lt;span style=&quot;background-color: rgb(255, 255, 255); color: rgb(0, 0, 0); font-family: Consolas, &amp;quot;Courier New&amp;quot;, monospace; font-size: 14px;&quot;&gt;)&lt;/span&gt;" style="rounded=1;whiteSpace=wrap;html=1;fontSize=13;fontColor=#008000;align=left;" vertex="1" parent="FJBJN5pR6QjKi9RD2nhv-60">
          <mxGeometry x="10" y="110" width="430" height="90" as="geometry" />
        </mxCell>
        <mxCell id="FJBJN5pR6QjKi9RD2nhv-63" value="&lt;div style=&quot;color: rgb(0, 0, 0); background-color: rgb(255, 255, 255); font-family: Consolas, &amp;quot;Courier New&amp;quot;, monospace; font-size: 14px; line-height: 19px;&quot;&gt;&lt;div&gt;&lt;span style=&quot;color: rgb(0, 0, 255);&quot;&gt;第二个for循环：计算所有点到平面的距离，返回符合阈值的点数，迭代次数是cloud的序列大小&lt;/span&gt;&lt;/div&gt;&lt;div&gt;&lt;span style=&quot;color: rgb(121, 94, 38);&quot;&gt;countWithinDistance&lt;/span&gt;&amp;nbsp;&lt;br&gt;&lt;/div&gt;&lt;div&gt;(&lt;span style=&quot;color: rgb(0, 0, 255);&quot;&gt;const&lt;/span&gt; &lt;span style=&quot;color: rgb(38, 127, 153);&quot;&gt;Eigen&lt;/span&gt;::&lt;span style=&quot;color: rgb(38, 127, 153);&quot;&gt;VectorXf&amp;nbsp;&lt;/span&gt;&amp;amp;&lt;span style=&quot;color: rgb(0, 16, 128);&quot;&gt;model_coefficients&lt;/span&gt;, &lt;span style=&quot;color: rgb(0, 0, 255);&quot;&gt;const&lt;/span&gt; &lt;span style=&quot;color: rgb(0, 0, 255);&quot;&gt;double&lt;/span&gt; &lt;span style=&quot;color: rgb(0, 16, 128);&quot;&gt;threshold&lt;/span&gt;)&lt;/div&gt;&lt;/div&gt;" style="rounded=1;whiteSpace=wrap;html=1;fontSize=13;fontColor=#008000;align=left;" vertex="1" parent="FJBJN5pR6QjKi9RD2nhv-60">
          <mxGeometry x="5" y="240" width="440" height="120" as="geometry" />
        </mxCell>
        <mxCell id="FJBJN5pR6QjKi9RD2nhv-65" value="&lt;b style=&quot;font-size: 16px;&quot;&gt;一个大的while迭代：&lt;span style=&quot;background-color: rgb(255, 255, 255); color: rgb(0, 0, 0); font-family: Consolas, &amp;quot;Courier New&amp;quot;, monospace;&quot;&gt;&amp;nbsp;&lt;br&gt;&lt;div style=&quot;&quot;&gt;&lt;span style=&quot;background-color: initial; color: rgb(175, 0, 219);&quot;&gt;while&lt;/span&gt; (iterations_ &amp;lt; &lt;span style=&quot;background-color: initial; color: rgb(0, 16, 128);&quot;&gt;k&lt;/span&gt; &amp;amp;&amp;amp; &lt;span style=&quot;background-color: initial; color: rgb(0, 16, 128);&quot;&gt;skipped_count&lt;/span&gt; &amp;lt; &lt;span style=&quot;background-color: initial; color: rgb(0, 16, 128);&quot;&gt;max_skip&lt;/span&gt;)&lt;/div&gt;&lt;/span&gt;&lt;/b&gt;" style="text;html=1;align=left;verticalAlign=middle;resizable=0;points=[];autosize=1;strokeColor=none;fillColor=none;fontSize=13;fontColor=#008000;" vertex="1" parent="FJBJN5pR6QjKi9RD2nhv-60">
          <mxGeometry x="10" y="40" width="460" height="40" as="geometry" />
        </mxCell>
        <mxCell id="FJBJN5pR6QjKi9RD2nhv-68" value="" style="shape=flexArrow;endArrow=classic;html=1;rounded=0;fontSize=16;fontColor=#008000;entryX=1;entryY=0.667;entryDx=0;entryDy=0;entryPerimeter=0;width=12;endSize=5.42;exitX=-0.005;exitY=0.628;exitDx=0;exitDy=0;exitPerimeter=0;" edge="1" parent="1" source="FJBJN5pR6QjKi9RD2nhv-19">
          <mxGeometry width="50" height="50" relative="1" as="geometry">
            <mxPoint x="460" y="1028" as="sourcePoint" />
            <mxPoint x="330" y="1028.14" as="targetPoint" />
          </mxGeometry>
        </mxCell>
        <mxCell id="FJBJN5pR6QjKi9RD2nhv-69" value="" style="shape=flexArrow;endArrow=classic;html=1;rounded=0;fontSize=16;fontColor=#008000;width=12;endSize=5.42;" edge="1" parent="1" target="FJBJN5pR6QjKi9RD2nhv-70">
          <mxGeometry width="50" height="50" relative="1" as="geometry">
            <mxPoint x="424.75" y="1269.5" as="sourcePoint" />
            <mxPoint x="340" y="1270" as="targetPoint" />
          </mxGeometry>
        </mxCell>
        <mxCell id="FJBJN5pR6QjKi9RD2nhv-70" value="两个verctor序列数组复制，应该能够并行" style="rounded=0;whiteSpace=wrap;html=1;fontSize=16;fontColor=#008000;" vertex="1" parent="1">
          <mxGeometry x="10" y="1240" width="220" height="60" as="geometry" />
        </mxCell>
        <mxCell id="FJBJN5pR6QjKi9RD2nhv-71" value="" style="shape=flexArrow;endArrow=classic;html=1;rounded=0;fontSize=16;fontColor=#008000;width=12;endSize=5.42;" edge="1" parent="1">
          <mxGeometry width="50" height="50" relative="1" as="geometry">
            <mxPoint x="464.5" y="1534.5" as="sourcePoint" />
            <mxPoint x="300" y="1535" as="targetPoint" />
            <Array as="points">
              <mxPoint x="324.5" y="1534.5" />
            </Array>
          </mxGeometry>
        </mxCell>
        <mxCell id="FJBJN5pR6QjKi9RD2nhv-74" value="Vertical Container" style="swimlane;fontSize=16;fontColor=#008000;" vertex="1" parent="1">
          <mxGeometry x="10" y="1430" width="290" height="300" as="geometry" />
        </mxCell>
        <mxCell id="FJBJN5pR6QjKi9RD2nhv-75" value="&lt;div style=&quot;color: rgb(0, 0, 0); background-color: rgb(255, 255, 255); font-family: Consolas, &amp;quot;Courier New&amp;quot;, monospace; font-size: 14px; line-height: 19px;&quot;&gt;&lt;span style=&quot;color: #795e26;&quot;&gt;computeMeanAndCovarianceMatrix&lt;/span&gt;&lt;/div&gt;&lt;div style=&quot;color: rgb(0, 0, 0); background-color: rgb(255, 255, 255); font-family: Consolas, &amp;quot;Courier New&amp;quot;, monospace; font-size: 14px; line-height: 19px;&quot;&gt;&lt;span style=&quot;color: #795e26;&quot;&gt;：&lt;/span&gt;&lt;/div&gt;&lt;font face=&quot;Consolas, Courier New, monospace&quot; color=&quot;#795e26&quot;&gt;&lt;span style=&quot;font-size: 14px;&quot;&gt;计算平均和协方差矩阵，&lt;/span&gt;&lt;/font&gt;&lt;div style=&quot;color: rgb(0, 0, 0); background-color: rgb(255, 255, 255); font-family: Consolas, &amp;quot;Courier New&amp;quot;, monospace; font-size: 14px; line-height: 19px;&quot;&gt;&lt;span style=&quot;color: #795e26;&quot;&gt;训练新的优化模型，迭代次数为inliers的数量&lt;/span&gt;&lt;/div&gt;" style="whiteSpace=wrap;html=1;fontSize=16;fontColor=#008000;align=left;" vertex="1" parent="FJBJN5pR6QjKi9RD2nhv-74">
          <mxGeometry x="10" y="60" width="260" height="110" as="geometry" />
        </mxCell>
        <mxCell id="FJBJN5pR6QjKi9RD2nhv-76" value="&lt;div style=&quot;color: rgb(0, 0, 0); background-color: rgb(255, 255, 255); font-family: Consolas, &amp;quot;Courier New&amp;quot;, monospace; font-size: 14px; line-height: 19px;&quot;&gt;&lt;span style=&quot;color: #267f99;&quot;&gt;pcl&lt;/span&gt;::&lt;span style=&quot;color: #795e26;&quot;&gt;eigen33&lt;/span&gt; (&lt;span style=&quot;color: #001080;&quot;&gt;covariance_matrix&lt;/span&gt;, &lt;span style=&quot;color: #001080;&quot;&gt;eigen_value&lt;/span&gt;, &lt;span style=&quot;color: #001080;&quot;&gt;eigen_vector&lt;/span&gt;)&lt;/div&gt;&lt;div style=&quot;color: rgb(0, 0, 0); background-color: rgb(255, 255, 255); font-family: Consolas, &amp;quot;Courier New&amp;quot;, monospace; font-size: 14px; line-height: 19px;&quot;&gt;根据矩阵计算平面系数，获取新的模型系数&lt;/div&gt;" style="rounded=0;whiteSpace=wrap;html=1;fontSize=16;fontColor=#008000;align=left;" vertex="1" parent="FJBJN5pR6QjKi9RD2nhv-74">
          <mxGeometry x="10" y="190" width="260" height="60" as="geometry" />
        </mxCell>
      </root>
    </mxGraphModel>
  </diagram>
</mxfile>
